<svg width="402" height="130" viewBox="0 0 402 130" fill="none" xmlns="http://www.w3.org/2000/svg">
<circle cx="225.554" cy="72.5541" r="17.5" fill="white"/>
<circle cx="268.554" cy="82.5541" r="17.5" fill="white"/>
<circle cx="311.554" cy="82.5541" r="17.5" fill="white"/>
<mask id="path-4-outside-1_3_32" maskUnits="userSpaceOnUse" x="-0.945923" y="-0.945923" width="403" height="131" fill="black">
<rect fill="white" x="-0.945923" y="-0.945923" width="403" height="131"/>
<path d="M65.3729 74.5844L67.3558 35.5438L84.9752 36.4387L82.9923 75.4793L65.3729 74.5844ZM76.4249 30.8842C74.0416 30.7632 72.0388 29.8721 70.4164 28.2109C68.794 26.5498 68.039 24.6127 68.1514 22.3996C68.2638 20.1866 69.2112 18.3359 70.9935 16.8477C72.7759 15.3595 74.8587 14.6759 77.242 14.797C79.6465 14.9191 81.6494 15.8102 83.2505 17.4703C84.8728 19.1314 85.6278 21.0685 85.5154 23.2816C85.403 25.4946 84.4556 27.3452 82.6733 28.8335C80.9123 30.3228 78.8295 31.0063 76.4249 30.8842Z"/>
<path d="M80.4862 74.9593L91.2669 27.0668L107.605 30.7446L105.556 39.8492L106.055 39.9615C107.726 37.1928 109.964 35.2068 112.768 34.0035C115.573 32.8002 118.638 32.5728 121.964 33.3215C125.331 34.0795 128.03 35.6261 130.059 37.9612C132.094 40.2755 133.03 42.9543 132.87 45.9975L133.368 46.1098C134.839 43.3614 137.093 41.4008 140.131 40.2282C143.173 39.0348 146.471 38.8382 150.026 39.6383C154.62 40.6724 158.008 42.9858 160.192 46.5786C162.396 50.176 162.946 54.4275 161.841 59.3332L154.57 91.6357L137.359 87.7614L143.647 59.8241C144.12 57.7246 143.96 55.9632 143.166 54.5397C142.377 53.0954 141.089 52.1721 139.302 51.7697C137.535 51.372 135.996 51.6589 134.685 52.6306C133.4 53.5862 132.521 55.1137 132.048 57.2131L125.76 85.1504L109.297 81.4446L115.585 53.5073C116.058 51.4078 115.898 49.6464 115.104 48.2229C114.315 46.7786 113.027 45.8553 111.24 45.4529C110.055 45.1862 108.975 45.2271 108.001 45.5757C107.027 45.9243 106.187 46.5541 105.479 47.465C104.798 48.3599 104.3 49.5036 103.986 50.8963L97.6976 78.8336L80.4862 74.9593Z"/>
<path d="M9.84391 32.1824L7.05408 18.1387L62.8529 7.05408L65.6428 21.0978L46.3326 24.9339L56.2963 75.0901L39.1178 78.5027L29.1541 28.3464L9.84391 32.1824Z"/>
<path d="M198.693 58.8418L196.185 71.8986L166.054 66.1108L168.562 53.0541L198.693 58.8418Z"/>
<path d="M378.903 98.5082C374.327 99.8893 370.115 100.19 366.266 99.4088C362.431 98.6035 359.114 96.7944 356.317 93.9815C353.532 91.144 351.431 87.3771 350.014 82.6806C348.654 78.1735 348.357 73.9651 349.126 70.0552C349.894 66.1454 351.623 62.7618 354.312 59.9045C357.002 57.0472 360.56 54.9504 364.987 53.6142C368.223 52.6373 371.307 52.2643 374.239 52.4953C377.17 52.7262 379.86 53.5363 382.309 54.9254C384.752 56.2955 386.894 58.2115 388.733 60.6731C390.571 63.1348 392.014 66.0984 393.06 69.5639L394.157 73.1999L355.876 84.7544L353.27 76.119L377.377 65.172C377.382 64.9071 377.39 64.6936 377.401 64.5315C377.413 64.3641 377.426 64.2569 377.441 64.2097C377.456 64.1574 377.471 64.1724 377.487 64.2549C377.503 64.335 377.517 64.4669 377.528 64.6508C377.539 64.8306 377.547 65.0416 377.551 65.2838C377.555 65.5248 377.555 65.7816 377.551 66.0541L366.461 82.3033C366.884 83.7047 367.55 77.8675 368.458 78.7918C369.366 79.7161 370.454 80.3279 371.722 80.6272C372.989 80.9265 374.385 80.846 375.911 80.3856C376.971 80.0656 377.893 79.6221 378.675 79.0553C379.477 78.4828 380.108 77.817 380.569 77.058C381.024 76.2801 381.278 75.439 381.33 74.5349L395.392 77.2904C395.823 80.4663 395.474 83.4439 394.344 86.2231C393.208 88.9834 391.338 91.4281 388.733 93.5573C386.142 95.662 382.865 97.3123 378.903 98.5082Z"/>
<path d="M349.97 27.8668L351.418 93.3054L333.781 93.6959L332.332 28.2574L349.97 27.8668Z"/>
<path d="M257.539 121.191C252.754 120.043 248.802 118.435 245.683 116.369C242.58 114.327 240.347 111.995 238.983 109.372C237.635 106.773 237.182 104.049 237.625 101.202L254.155 105.17C254.099 106.134 254.334 106.979 254.861 107.704C255.388 108.43 256.14 109.039 257.117 109.533C258.11 110.051 259.259 110.467 260.564 110.78C262.78 111.312 264.732 111.261 266.417 110.628C268.123 110 269.285 108.402 269.901 105.836L271.668 98.4753L271.17 98.356C270.196 99.6789 268.941 100.705 267.408 101.435C265.879 102.146 264.148 102.558 262.214 102.673C260.285 102.769 258.243 102.558 256.089 102.041C252.692 101.226 249.736 99.7577 247.222 97.6372C244.728 95.5216 242.995 92.7005 242.024 89.1739C241.072 85.6522 241.199 81.3813 242.404 76.3613C243.664 71.1147 245.578 67.0634 248.148 64.2072C250.739 61.356 253.636 59.5067 256.841 58.6593C260.067 57.8168 263.254 57.7735 266.402 58.5293C268.764 59.0961 270.745 59.9708 272.345 61.1534C273.95 62.317 275.203 63.6658 276.106 65.1998C277.013 66.7149 277.6 68.2831 277.869 69.9043L278.241 69.9938L280.063 62.4071L297.214 66.5243L286.804 109.893C285.921 113.573 284.125 116.445 281.417 118.51C278.724 120.598 275.33 121.869 271.234 122.323C267.138 122.777 262.573 122.4 257.539 121.191Z"/>
<path d="M321.289 121.683C316.55 123.009 312.316 123.53 308.585 123.244C304.881 122.972 301.794 122.022 299.326 120.395C296.883 118.782 295.161 116.623 294.161 113.92L310.531 109.337C310.952 110.206 311.569 110.83 312.383 111.207C313.196 111.584 314.15 111.75 315.243 111.706C316.363 111.674 317.569 111.478 318.861 111.116C321.056 110.501 322.736 109.507 323.899 108.133C325.084 106.753 325.32 104.793 324.608 102.251L322.568 94.9618L322.075 95.0997C321.868 96.7298 321.272 98.2369 320.288 99.621C319.299 100.986 317.988 102.19 316.355 103.232C314.717 104.255 312.831 105.065 310.697 105.662C307.333 106.604 304.036 106.761 300.808 106.134C297.6 105.5 294.712 103.88 292.146 101.273C289.601 98.6602 287.632 94.8681 286.24 89.8966C284.785 84.7009 284.484 80.2301 285.338 76.4841C286.212 72.7323 287.842 69.7061 290.229 67.4052C292.636 65.0987 295.399 63.5089 298.517 62.6358C300.856 61.9809 303.012 61.7803 304.985 62.0339C306.953 62.2688 308.705 62.8365 310.24 63.7368C311.77 64.6185 313.047 65.7021 314.071 66.9875L314.44 66.8841L312.336 59.3709L329.322 54.6148L341.348 97.5636C342.369 101.208 342.199 104.591 340.838 107.713C339.504 110.848 337.158 113.611 333.802 116.002C330.445 118.393 326.274 120.287 321.289 121.683Z"/>
<path fill-rule="evenodd" clip-rule="evenodd" d="M225.054 46.0541C239.413 46.0541 251.054 57.6947 251.054 72.0541C251.054 86.4135 239.413 98.0541 225.054 98.0541C210.695 98.0541 199.054 86.4135 199.054 72.0541C199.054 57.6947 210.695 46.0541 225.054 46.0541Z"/>
</mask>
<path d="M65.3729 74.5844L67.3558 35.5438L84.9752 36.4387L82.9923 75.4793L65.3729 74.5844ZM76.4249 30.8842C74.0416 30.7632 72.0388 29.8721 70.4164 28.2109C68.794 26.5498 68.039 24.6127 68.1514 22.3996C68.2638 20.1866 69.2112 18.3359 70.9935 16.8477C72.7759 15.3595 74.8587 14.6759 77.242 14.797C79.6465 14.9191 81.6494 15.8102 83.2505 17.4703C84.8728 19.1314 85.6278 21.0685 85.5154 23.2816C85.403 25.4946 84.4556 27.3452 82.6733 28.8335C80.9123 30.3228 78.8295 31.0063 76.4249 30.8842Z" fill="white"/>
<path d="M80.4862 74.9593L91.2669 27.0668L107.605 30.7446L105.556 39.8492L106.055 39.9615C107.726 37.1928 109.964 35.2068 112.768 34.0035C115.573 32.8002 118.638 32.5728 121.964 33.3215C125.331 34.0795 128.03 35.6261 130.059 37.9612C132.094 40.2755 133.03 42.9543 132.87 45.9975L133.368 46.1098C134.839 43.3614 137.093 41.4008 140.131 40.2282C143.173 39.0348 146.471 38.8382 150.026 39.6383C154.62 40.6724 158.008 42.9858 160.192 46.5786C162.396 50.176 162.946 54.4275 161.841 59.3332L154.57 91.6357L137.359 87.7614L143.647 59.8241C144.12 57.7246 143.96 55.9632 143.166 54.5397C142.377 53.0954 141.089 52.1721 139.302 51.7697C137.535 51.372 135.996 51.6589 134.685 52.6306C133.4 53.5862 132.521 55.1137 132.048 57.2131L125.76 85.1504L109.297 81.4446L115.585 53.5073C116.058 51.4078 115.898 49.6464 115.104 48.2229C114.315 46.7786 113.027 45.8553 111.24 45.4529C110.055 45.1862 108.975 45.2271 108.001 45.5757C107.027 45.9243 106.187 46.5541 105.479 47.465C104.798 48.3599 104.3 49.5036 103.986 50.8963L97.6976 78.8336L80.4862 74.9593Z" fill="white"/>
<path d="M9.84391 32.1824L7.05408 18.1387L62.8529 7.05408L65.6428 21.0978L46.3326 24.9339L56.2963 75.0901L39.1178 78.5027L29.1541 28.3464L9.84391 32.1824Z" fill="white"/>
<path d="M198.693 58.8418L196.185 71.8986L166.054 66.1108L168.562 53.0541L198.693 58.8418Z" fill="white"/>
<path d="M378.903 98.5082C374.327 99.8893 370.115 100.19 366.266 99.4088C362.431 98.6035 359.114 96.7944 356.317 93.9815C353.532 91.144 351.431 87.3771 350.014 82.6806C348.654 78.1735 348.357 73.9651 349.126 70.0552C349.894 66.1454 351.623 62.7618 354.312 59.9045C357.002 57.0472 360.56 54.9504 364.987 53.6142C368.223 52.6373 371.307 52.2643 374.239 52.4953C377.17 52.7262 379.86 53.5363 382.309 54.9254C384.752 56.2955 386.894 58.2115 388.733 60.6731C390.571 63.1348 392.014 66.0984 393.06 69.5639L394.157 73.1999L355.876 84.7544L353.27 76.119L377.377 65.172C377.382 64.9071 377.39 64.6936 377.401 64.5315C377.413 64.3641 377.426 64.2569 377.441 64.2097C377.456 64.1574 377.471 64.1724 377.487 64.2549C377.503 64.335 377.517 64.4669 377.528 64.6508C377.539 64.8306 377.547 65.0416 377.551 65.2838C377.555 65.5248 377.555 65.7816 377.551 66.0541L366.461 82.3033C366.884 83.7047 367.55 77.8675 368.458 78.7918C369.366 79.7161 370.454 80.3279 371.722 80.6272C372.989 80.9265 374.385 80.846 375.911 80.3856C376.971 80.0656 377.893 79.6221 378.675 79.0553C379.477 78.4828 380.108 77.817 380.569 77.058C381.024 76.2801 381.278 75.439 381.33 74.5349L395.392 77.2904C395.823 80.4663 395.474 83.4439 394.344 86.2231C393.208 88.9834 391.338 91.4281 388.733 93.5573C386.142 95.662 382.865 97.3123 378.903 98.5082Z" fill="white"/>
<path d="M349.97 27.8668L351.418 93.3054L333.781 93.6959L332.332 28.2574L349.97 27.8668Z" fill="white"/>
<path d="M257.539 121.191C252.754 120.043 248.802 118.435 245.683 116.369C242.58 114.327 240.347 111.995 238.983 109.372C237.635 106.773 237.182 104.049 237.625 101.202L254.155 105.17C254.099 106.134 254.334 106.979 254.861 107.704C255.388 108.43 256.14 109.039 257.117 109.533C258.11 110.051 259.259 110.467 260.564 110.78C262.78 111.312 264.732 111.261 266.417 110.628C268.123 110 269.285 108.402 269.901 105.836L271.668 98.4753L271.17 98.356C270.196 99.6789 268.941 100.705 267.408 101.435C265.879 102.146 264.148 102.558 262.214 102.673C260.285 102.769 258.243 102.558 256.089 102.041C252.692 101.226 249.736 99.7577 247.222 97.6372C244.728 95.5216 242.995 92.7005 242.024 89.1739C241.072 85.6522 241.199 81.3813 242.404 76.3613C243.664 71.1147 245.578 67.0634 248.148 64.2072C250.739 61.356 253.636 59.5067 256.841 58.6593C260.067 57.8168 263.254 57.7735 266.402 58.5293C268.764 59.0961 270.745 59.9708 272.345 61.1534C273.95 62.317 275.203 63.6658 276.106 65.1998C277.013 66.7149 277.6 68.2831 277.869 69.9043L278.241 69.9938L280.063 62.4071L297.214 66.5243L286.804 109.893C285.921 113.573 284.125 116.445 281.417 118.51C278.724 120.598 275.33 121.869 271.234 122.323C267.138 122.777 262.573 122.4 257.539 121.191Z" fill="white"/>
<path d="M321.289 121.683C316.55 123.009 312.316 123.53 308.585 123.244C304.881 122.972 301.794 122.022 299.326 120.395C296.883 118.782 295.161 116.623 294.161 113.92L310.531 109.337C310.952 110.206 311.569 110.83 312.383 111.207C313.196 111.584 314.15 111.75 315.243 111.706C316.363 111.674 317.569 111.478 318.861 111.116C321.056 110.501 322.736 109.507 323.899 108.133C325.084 106.753 325.32 104.793 324.608 102.251L322.568 94.9618L322.075 95.0997C321.868 96.7298 321.272 98.2369 320.288 99.621C319.299 100.986 317.988 102.19 316.355 103.232C314.717 104.255 312.831 105.065 310.697 105.662C307.333 106.604 304.036 106.761 300.808 106.134C297.6 105.5 294.712 103.88 292.146 101.273C289.601 98.6602 287.632 94.8681 286.24 89.8966C284.785 84.7009 284.484 80.2301 285.338 76.4841C286.212 72.7323 287.842 69.7061 290.229 67.4052C292.636 65.0987 295.399 63.5089 298.517 62.6358C300.856 61.9809 303.012 61.7803 304.985 62.0339C306.953 62.2688 308.705 62.8365 310.24 63.7368C311.77 64.6185 313.047 65.7021 314.071 66.9875L314.44 66.8841L312.336 59.3709L329.322 54.6148L341.348 97.5636C342.369 101.208 342.199 104.591 340.838 107.713C339.504 110.848 337.158 113.611 333.802 116.002C330.445 118.393 326.274 120.287 321.289 121.683Z" fill="white"/>
<path fill-rule="evenodd" clip-rule="evenodd" d="M225.054 46.0541C239.413 46.0541 251.054 57.6947 251.054 72.0541C251.054 86.4135 239.413 98.0541 225.054 98.0541C210.695 98.0541 199.054 86.4135 199.054 72.0541C199.054 57.6947 210.695 46.0541 225.054 46.0541Z" fill="white"/>
<path d="M65.3729 74.5844L67.3558 35.5438L84.9752 36.4387L82.9923 75.4793L65.3729 74.5844ZM76.4249 30.8842C74.0416 30.7632 72.0388 29.8721 70.4164 28.2109C68.794 26.5498 68.039 24.6127 68.1514 22.3996C68.2638 20.1866 69.2112 18.3359 70.9935 16.8477C72.7759 15.3595 74.8587 14.6759 77.242 14.797C79.6465 14.9191 81.6494 15.8102 83.2505 17.4703C84.8728 19.1314 85.6278 21.0685 85.5154 23.2816C85.403 25.4946 84.4556 27.3452 82.6733 28.8335C80.9123 30.3228 78.8295 31.0063 76.4249 30.8842Z" stroke="#0C53CF" stroke-width="12" mask="url(#path-4-outside-1_3_32)"/>
<path d="M80.4862 74.9593L91.2669 27.0668L107.605 30.7446L105.556 39.8492L106.055 39.9615C107.726 37.1928 109.964 35.2068 112.768 34.0035C115.573 32.8002 118.638 32.5728 121.964 33.3215C125.331 34.0795 128.03 35.6261 130.059 37.9612C132.094 40.2755 133.03 42.9543 132.87 45.9975L133.368 46.1098C134.839 43.3614 137.093 41.4008 140.131 40.2282C143.173 39.0348 146.471 38.8382 150.026 39.6383C154.62 40.6724 158.008 42.9858 160.192 46.5786C162.396 50.176 162.946 54.4275 161.841 59.3332L154.57 91.6357L137.359 87.7614L143.647 59.8241C144.12 57.7246 143.96 55.9632 143.166 54.5397C142.377 53.0954 141.089 52.1721 139.302 51.7697C137.535 51.372 135.996 51.6589 134.685 52.6306C133.4 53.5862 132.521 55.1137 132.048 57.2131L125.76 85.1504L109.297 81.4446L115.585 53.5073C116.058 51.4078 115.898 49.6464 115.104 48.2229C114.315 46.7786 113.027 45.8553 111.24 45.4529C110.055 45.1862 108.975 45.2271 108.001 45.5757C107.027 45.9243 106.187 46.5541 105.479 47.465C104.798 48.3599 104.3 49.5036 103.986 50.8963L97.6976 78.8336L80.4862 74.9593Z" stroke="#0C53CF" stroke-width="12" mask="url(#path-4-outside-1_3_32)"/>
<path d="M9.84391 32.1824L7.05408 18.1387L62.8529 7.05408L65.6428 21.0978L46.3326 24.9339L56.2963 75.0901L39.1178 78.5027L29.1541 28.3464L9.84391 32.1824Z" stroke="#0C53CF" stroke-width="12" mask="url(#path-4-outside-1_3_32)"/>
<path d="M198.693 58.8418L196.185 71.8986L166.054 66.1108L168.562 53.0541L198.693 58.8418Z" stroke="#0C53CF" stroke-width="12" mask="url(#path-4-outside-1_3_32)"/>
<path d="M378.903 98.5082C374.327 99.8893 370.115 100.19 366.266 99.4088C362.431 98.6035 359.114 96.7944 356.317 93.9815C353.532 91.144 351.431 87.3771 350.014 82.6806C348.654 78.1735 348.357 73.9651 349.126 70.0552C349.894 66.1454 351.623 62.7618 354.312 59.9045C357.002 57.0472 360.56 54.9504 364.987 53.6142C368.223 52.6373 371.307 52.2643 374.239 52.4953C377.17 52.7262 379.86 53.5363 382.309 54.9254C384.752 56.2955 386.894 58.2115 388.733 60.6731C390.571 63.1348 392.014 66.0984 393.06 69.5639L394.157 73.1999L355.876 84.7544L353.27 76.119L377.377 65.172C377.382 64.9071 377.39 64.6936 377.401 64.5315C377.413 64.3641 377.426 64.2569 377.441 64.2097C377.456 64.1574 377.471 64.1724 377.487 64.2549C377.503 64.335 377.517 64.4669 377.528 64.6508C377.539 64.8306 377.547 65.0416 377.551 65.2838C377.555 65.5248 377.555 65.7816 377.551 66.0541L366.461 82.3033C366.884 83.7047 367.55 77.8675 368.458 78.7918C369.366 79.7161 370.454 80.3279 371.722 80.6272C372.989 80.9265 374.385 80.846 375.911 80.3856C376.971 80.0656 377.893 79.6221 378.675 79.0553C379.477 78.4828 380.108 77.817 380.569 77.058C381.024 76.2801 381.278 75.439 381.33 74.5349L395.392 77.2904C395.823 80.4663 395.474 83.4439 394.344 86.2231C393.208 88.9834 391.338 91.4281 388.733 93.5573C386.142 95.662 382.865 97.3123 378.903 98.5082Z" stroke="#0C53CF" stroke-width="12" mask="url(#path-4-outside-1_3_32)"/>
<path d="M349.97 27.8668L351.418 93.3054L333.781 93.6959L332.332 28.2574L349.97 27.8668Z" stroke="#0C53CF" stroke-width="12" mask="url(#path-4-outside-1_3_32)"/>
<path d="M257.539 121.191C252.754 120.043 248.802 118.435 245.683 116.369C242.58 114.327 240.347 111.995 238.983 109.372C237.635 106.773 237.182 104.049 237.625 101.202L254.155 105.17C254.099 106.134 254.334 106.979 254.861 107.704C255.388 108.43 256.14 109.039 257.117 109.533C258.11 110.051 259.259 110.467 260.564 110.78C262.78 111.312 264.732 111.261 266.417 110.628C268.123 110 269.285 108.402 269.901 105.836L271.668 98.4753L271.17 98.356C270.196 99.6789 268.941 100.705 267.408 101.435C265.879 102.146 264.148 102.558 262.214 102.673C260.285 102.769 258.243 102.558 256.089 102.041C252.692 101.226 249.736 99.7577 247.222 97.6372C244.728 95.5216 242.995 92.7005 242.024 89.1739C241.072 85.6522 241.199 81.3813 242.404 76.3613C243.664 71.1147 245.578 67.0634 248.148 64.2072C250.739 61.356 253.636 59.5067 256.841 58.6593C260.067 57.8168 263.254 57.7735 266.402 58.5293C268.764 59.0961 270.745 59.9708 272.345 61.1534C273.95 62.317 275.203 63.6658 276.106 65.1998C277.013 66.7149 277.6 68.2831 277.869 69.9043L278.241 69.9938L280.063 62.4071L297.214 66.5243L286.804 109.893C285.921 113.573 284.125 116.445 281.417 118.51C278.724 120.598 275.33 121.869 271.234 122.323C267.138 122.777 262.573 122.4 257.539 121.191Z" stroke="#0C53CF" stroke-width="12" mask="url(#path-4-outside-1_3_32)"/>
<path d="M321.289 121.683C316.55 123.009 312.316 123.53 308.585 123.244C304.881 122.972 301.794 122.022 299.326 120.395C296.883 118.782 295.161 116.623 294.161 113.92L310.531 109.337C310.952 110.206 311.569 110.83 312.383 111.207C313.196 111.584 314.15 111.75 315.243 111.706C316.363 111.674 317.569 111.478 318.861 111.116C321.056 110.501 322.736 109.507 323.899 108.133C325.084 106.753 325.32 104.793 324.608 102.251L322.568 94.9618L322.075 95.0997C321.868 96.7298 321.272 98.2369 320.288 99.621C319.299 100.986 317.988 102.19 316.355 103.232C314.717 104.255 312.831 105.065 310.697 105.662C307.333 106.604 304.036 106.761 300.808 106.134C297.6 105.5 294.712 103.88 292.146 101.273C289.601 98.6602 287.632 94.8681 286.24 89.8966C284.785 84.7009 284.484 80.2301 285.338 76.4841C286.212 72.7323 287.842 69.7061 290.229 67.4052C292.636 65.0987 295.399 63.5089 298.517 62.6358C300.856 61.9809 303.012 61.7803 304.985 62.0339C306.953 62.2688 308.705 62.8365 310.24 63.7368C311.77 64.6185 313.047 65.7021 314.071 66.9875L314.44 66.8841L312.336 59.3709L329.322 54.6148L341.348 97.5636C342.369 101.208 342.199 104.591 340.838 107.713C339.504 110.848 337.158 113.611 333.802 116.002C330.445 118.393 326.274 120.287 321.289 121.683Z" stroke="#0C53CF" stroke-width="12" mask="url(#path-4-outside-1_3_32)"/>
<path fill-rule="evenodd" clip-rule="evenodd" d="M225.054 46.0541C239.413 46.0541 251.054 57.6947 251.054 72.0541C251.054 86.4135 239.413 98.0541 225.054 98.0541C210.695 98.0541 199.054 86.4135 199.054 72.0541C199.054 57.6947 210.695 46.0541 225.054 46.0541Z" stroke="#0C53CF" stroke-width="12" mask="url(#path-4-outside-1_3_32)"/>
<mask id="path-5-outside-2_3_32" maskUnits="userSpaceOnUse" x="3.05408" y="3.05408" width="396" height="124" fill="black">
<rect fill="white" x="3.05408" y="3.05408" width="396" height="124"/>
<path d="M65.3729 74.5844L67.3558 35.5438L84.9752 36.4387L82.9923 75.4793L65.3729 74.5844ZM76.4249 30.8842C74.0416 30.7632 72.0388 29.8721 70.4164 28.2109C68.794 26.5498 68.039 24.6127 68.1514 22.3996C68.2638 20.1866 69.2112 18.3359 70.9935 16.8477C72.7759 15.3595 74.8587 14.6759 77.242 14.797C79.6465 14.9191 81.6494 15.8102 83.2505 17.4703C84.8728 19.1314 85.6278 21.0685 85.5154 23.2816C85.403 25.4946 84.4556 27.3452 82.6733 28.8335C80.9123 30.3228 78.8295 31.0063 76.4249 30.8842Z"/>
<path d="M80.4862 74.9593L91.2669 27.0668L107.605 30.7446L105.556 39.8492L106.055 39.9615C107.726 37.1928 109.964 35.2068 112.768 34.0035C115.573 32.8002 118.638 32.5728 121.964 33.3215C125.331 34.0795 128.03 35.6261 130.059 37.9612C132.094 40.2755 133.03 42.9543 132.87 45.9975L133.368 46.1098C134.839 43.3614 137.093 41.4008 140.131 40.2282C143.173 39.0348 146.471 38.8382 150.026 39.6383C154.62 40.6724 158.008 42.9858 160.192 46.5786C162.396 50.176 162.946 54.4275 161.841 59.3332L154.57 91.6357L137.359 87.7614L143.647 59.8241C144.12 57.7246 143.96 55.9632 143.166 54.5397C142.377 53.0954 141.089 52.1721 139.302 51.7697C137.535 51.372 135.996 51.6589 134.685 52.6306C133.4 53.5862 132.521 55.1137 132.048 57.2131L125.76 85.1504L109.297 81.4446L115.585 53.5073C116.058 51.4078 115.898 49.6464 115.104 48.2229C114.315 46.7786 113.027 45.8553 111.24 45.4529C110.055 45.1862 108.975 45.2271 108.001 45.5757C107.027 45.9243 106.187 46.5541 105.479 47.465C104.798 48.3599 104.3 49.5036 103.986 50.8963L97.6976 78.8336L80.4862 74.9593Z"/>
<path d="M9.84391 32.1824L7.05408 18.1387L62.8529 7.05408L65.6428 21.0978L46.3326 24.9339L56.2963 75.0901L39.1178 78.5027L29.1541 28.3464L9.84391 32.1824Z"/>
<path d="M198.693 58.8418L196.185 71.8986L166.054 66.1108L168.562 53.0541L198.693 58.8418Z"/>
<path d="M378.903 98.5082C374.327 99.8893 370.115 100.19 366.266 99.4088C362.431 98.6035 359.114 96.7944 356.317 93.9815C353.532 91.144 351.431 87.3771 350.014 82.6806C348.654 78.1735 348.357 73.9651 349.126 70.0552C349.894 66.1454 351.623 62.7618 354.312 59.9045C357.002 57.0472 360.56 54.9504 364.987 53.6142C368.223 52.6373 371.307 52.2643 374.239 52.4953C377.17 52.7262 379.86 53.5363 382.309 54.9254C384.752 56.2955 386.894 58.2115 388.733 60.6731C390.571 63.1348 392.014 66.0984 393.06 69.5639L394.157 73.1999L355.876 84.7544L353.27 76.119L377.377 68.8427C376.981 67.5984 376.333 66.5955 375.434 65.8339C374.547 65.0478 373.512 64.544 372.329 64.3225C371.159 64.0765 369.932 64.1472 368.648 64.5346C367.402 64.9108 366.341 65.5307 365.465 66.3943C364.583 67.2389 363.969 68.2301 363.623 69.3679C363.295 70.5 363.303 71.7061 363.649 72.9861L366.461 82.3033C366.884 83.7047 367.55 84.8675 368.458 85.7918C369.366 86.7161 370.454 87.3279 371.722 87.6272C372.989 87.9265 374.385 87.846 375.911 87.3856C376.971 87.0656 377.893 86.6221 378.675 86.0553C379.477 85.4828 380.108 84.817 380.569 84.058C381.024 83.2801 381.278 82.439 381.33 81.5349L395.392 77.2904C395.823 80.4663 395.474 83.4439 394.344 86.2231C393.208 88.9834 391.338 91.4281 388.733 93.5573C386.142 95.662 382.865 97.3123 378.903 98.5082Z"/>
<path d="M349.97 27.8668L351.418 93.3054L333.781 93.6959L332.332 28.2574L349.97 27.8668Z"/>
<path d="M257.539 121.191C252.754 120.043 248.802 118.435 245.683 116.369C242.58 114.327 240.347 111.995 238.983 109.372C237.635 106.773 237.182 104.049 237.625 101.202L254.155 105.17C254.099 106.134 254.334 106.979 254.861 107.704C255.388 108.43 256.14 109.039 257.117 109.533C258.11 110.051 259.259 110.467 260.564 110.78C262.78 111.312 264.732 111.261 266.417 110.628C268.123 110 269.285 108.402 269.901 105.836L271.668 98.4753L271.17 98.356C270.196 99.6789 268.941 100.705 267.408 101.435C265.879 102.146 264.148 102.558 262.214 102.673C260.285 102.769 258.243 102.558 256.089 102.041C252.692 101.226 249.736 99.7577 247.222 97.6372C244.728 95.5216 242.995 92.7005 242.024 89.1739C241.072 85.6522 241.199 81.3813 242.404 76.3613C243.664 71.1147 245.578 67.0634 248.148 64.2072C250.739 61.356 253.636 59.5067 256.841 58.6593C260.067 57.8168 263.254 57.7735 266.402 58.5293C268.764 59.0961 270.745 59.9708 272.345 61.1534C273.95 62.317 275.203 63.6658 276.106 65.1998C277.013 66.7149 277.6 68.2831 277.869 69.9043L278.241 69.9938L280.063 62.4071L297.214 66.5243L286.804 109.893C285.921 113.573 284.125 116.445 281.417 118.51C278.724 120.598 275.33 121.869 271.234 122.323C267.138 122.777 262.573 122.4 257.539 121.191ZM265.092 92.4657C266.666 92.8436 268.108 92.7705 269.416 92.2464C270.751 91.7084 271.897 90.766 272.855 89.4193C273.839 88.0587 274.585 86.3215 275.092 84.2078C275.609 82.0563 275.74 80.1417 275.485 78.4639C275.256 76.7721 274.669 75.3837 273.725 74.2987C272.805 73.1998 271.559 72.4614 269.984 72.0835C268.41 71.7056 266.964 71.7976 265.646 72.3595C264.353 72.9075 263.221 73.8831 262.249 75.2865C261.302 76.6759 260.57 78.4463 260.053 80.5978C259.537 82.7492 259.388 84.6495 259.605 86.2985C259.848 87.9336 260.423 89.2793 261.331 90.3354C262.264 91.3777 263.517 92.0878 265.092 92.4657Z"/>
<path d="M321.289 121.683C316.55 123.009 312.316 123.53 308.585 123.244C304.881 122.972 301.794 122.022 299.326 120.395C296.883 118.782 295.161 116.623 294.161 113.92L310.531 109.337C310.952 110.206 311.569 110.83 312.383 111.207C313.196 111.584 314.15 111.75 315.243 111.706C316.363 111.674 317.569 111.478 318.861 111.116C321.056 110.501 322.736 109.507 323.899 108.133C325.084 106.753 325.32 104.793 324.608 102.251L322.568 94.9618L322.075 95.0997C321.868 96.7298 321.272 98.2369 320.288 99.621C319.299 100.986 317.988 102.19 316.355 103.232C314.717 104.255 312.831 105.065 310.697 105.662C307.333 106.604 304.036 106.761 300.808 106.134C297.6 105.5 294.712 103.88 292.146 101.273C289.601 98.6602 287.632 94.8681 286.24 89.8966C284.785 84.7009 284.484 80.2301 285.338 76.4841C286.212 72.7323 287.842 69.7061 290.229 67.4052C292.636 65.0987 295.399 63.5089 298.517 62.6358C300.856 61.9809 303.012 61.7803 304.985 62.0339C306.953 62.2688 308.705 62.8365 310.24 63.7368C311.77 64.6185 313.047 65.7021 314.071 66.9875L314.44 66.8841L312.336 59.3709L329.322 54.6148L341.348 97.5636C342.369 101.208 342.199 104.591 340.838 107.713C339.504 110.848 337.158 113.611 333.802 116.002C330.445 118.393 326.274 120.287 321.289 121.683ZM313.898 92.9151C315.457 92.4785 316.68 91.7127 317.568 90.6175C318.471 89.4979 319.014 88.1166 319.195 86.4736C319.392 84.8061 319.197 82.9257 318.611 80.8325C318.015 78.7018 317.197 76.9658 316.157 75.6242C315.133 74.2582 313.945 73.3314 312.591 72.8437C311.253 72.3315 309.805 72.2937 308.246 72.7302C306.687 73.1668 305.468 73.9513 304.591 75.0839C303.729 76.1919 303.215 77.5956 303.049 79.2947C302.898 80.9694 303.121 82.872 303.718 85.0027C304.314 87.1333 305.109 88.8658 306.102 90.2001C307.111 91.51 308.268 92.4052 309.575 92.8858C310.898 93.3419 312.338 93.3516 313.898 92.9151Z"/>
<path fill-rule="evenodd" clip-rule="evenodd" d="M225.054 46.0541C239.413 46.0541 251.054 57.6947 251.054 72.0541C251.054 86.4135 239.413 98.0541 225.054 98.0541C210.695 98.0541 199.054 86.4135 199.054 72.0541C199.054 57.6947 210.695 46.0541 225.054 46.0541ZM225.054 58.0541C217.322 58.0541 211.054 64.3221 211.054 72.0541C211.054 79.7861 217.322 86.0541 225.054 86.0541C232.786 86.0541 239.054 79.7861 239.054 72.0541C239.054 64.3221 232.786 58.0541 225.054 58.0541Z"/>
</mask>
<path d="M65.3729 74.5844L67.3558 35.5438L84.9752 36.4387L82.9923 75.4793L65.3729 74.5844ZM76.4249 30.8842C74.0416 30.7632 72.0388 29.8721 70.4164 28.2109C68.794 26.5498 68.039 24.6127 68.1514 22.3996C68.2638 20.1866 69.2112 18.3359 70.9935 16.8477C72.7759 15.3595 74.8587 14.6759 77.242 14.797C79.6465 14.9191 81.6494 15.8102 83.2505 17.4703C84.8728 19.1314 85.6278 21.0685 85.5154 23.2816C85.403 25.4946 84.4556 27.3452 82.6733 28.8335C80.9123 30.3228 78.8295 31.0063 76.4249 30.8842Z" fill="white"/>
<path d="M80.4862 74.9593L91.2669 27.0668L107.605 30.7446L105.556 39.8492L106.055 39.9615C107.726 37.1928 109.964 35.2068 112.768 34.0035C115.573 32.8002 118.638 32.5728 121.964 33.3215C125.331 34.0795 128.03 35.6261 130.059 37.9612C132.094 40.2755 133.03 42.9543 132.87 45.9975L133.368 46.1098C134.839 43.3614 137.093 41.4008 140.131 40.2282C143.173 39.0348 146.471 38.8382 150.026 39.6383C154.62 40.6724 158.008 42.9858 160.192 46.5786C162.396 50.176 162.946 54.4275 161.841 59.3332L154.57 91.6357L137.359 87.7614L143.647 59.8241C144.12 57.7246 143.96 55.9632 143.166 54.5397C142.377 53.0954 141.089 52.1721 139.302 51.7697C137.535 51.372 135.996 51.6589 134.685 52.6306C133.4 53.5862 132.521 55.1137 132.048 57.2131L125.76 85.1504L109.297 81.4446L115.585 53.5073C116.058 51.4078 115.898 49.6464 115.104 48.2229C114.315 46.7786 113.027 45.8553 111.24 45.4529C110.055 45.1862 108.975 45.2271 108.001 45.5757C107.027 45.9243 106.187 46.5541 105.479 47.465C104.798 48.3599 104.3 49.5036 103.986 50.8963L97.6976 78.8336L80.4862 74.9593Z" fill="white"/>
<path d="M9.84391 32.1824L7.05408 18.1387L62.8529 7.05408L65.6428 21.0978L46.3326 24.9339L56.2963 75.0901L39.1178 78.5027L29.1541 28.3464L9.84391 32.1824Z" fill="white"/>
<path d="M198.693 58.8418L196.185 71.8986L166.054 66.1108L168.562 53.0541L198.693 58.8418Z" fill="white"/>
<path d="M378.903 98.5082C374.327 99.8893 370.115 100.19 366.266 99.4088C362.431 98.6035 359.114 96.7944 356.317 93.9815C353.532 91.144 351.431 87.3771 350.014 82.6806C348.654 78.1735 348.357 73.9651 349.126 70.0552C349.894 66.1454 351.623 62.7618 354.312 59.9045C357.002 57.0472 360.56 54.9504 364.987 53.6142C368.223 52.6373 371.307 52.2643 374.239 52.4953C377.17 52.7262 379.86 53.5363 382.309 54.9254C384.752 56.2955 386.894 58.2115 388.733 60.6731C390.571 63.1348 392.014 66.0984 393.06 69.5639L394.157 73.1999L355.876 84.7544L353.27 76.119L377.377 68.8427C376.981 67.5984 376.333 66.5955 375.434 65.8339C374.547 65.0478 373.512 64.544 372.329 64.3225C371.159 64.0765 369.932 64.1472 368.648 64.5346C367.402 64.9108 366.341 65.5307 365.465 66.3943C364.583 67.2389 363.969 68.2301 363.623 69.3679C363.295 70.5 363.303 71.7061 363.649 72.9861L366.461 82.3033C366.884 83.7047 367.55 84.8675 368.458 85.7918C369.366 86.7161 370.454 87.3279 371.722 87.6272C372.989 87.9265 374.385 87.846 375.911 87.3856C376.971 87.0656 377.893 86.6221 378.675 86.0553C379.477 85.4828 380.108 84.817 380.569 84.058C381.024 83.2801 381.278 82.439 381.33 81.5349L395.392 77.2904C395.823 80.4663 395.474 83.4439 394.344 86.2231C393.208 88.9834 391.338 91.4281 388.733 93.5573C386.142 95.662 382.865 97.3123 378.903 98.5082Z" fill="white"/>
<path d="M349.97 27.8668L351.418 93.3054L333.781 93.6959L332.332 28.2574L349.97 27.8668Z" fill="white"/>
<path d="M257.539 121.191C252.754 120.043 248.802 118.435 245.683 116.369C242.58 114.327 240.347 111.995 238.983 109.372C237.635 106.773 237.182 104.049 237.625 101.202L254.155 105.17C254.099 106.134 254.334 106.979 254.861 107.704C255.388 108.43 256.14 109.039 257.117 109.533C258.11 110.051 259.259 110.467 260.564 110.78C262.78 111.312 264.732 111.261 266.417 110.628C268.123 110 269.285 108.402 269.901 105.836L271.668 98.4753L271.17 98.356C270.196 99.6789 268.941 100.705 267.408 101.435C265.879 102.146 264.148 102.558 262.214 102.673C260.285 102.769 258.243 102.558 256.089 102.041C252.692 101.226 249.736 99.7577 247.222 97.6372C244.728 95.5216 242.995 92.7005 242.024 89.1739C241.072 85.6522 241.199 81.3813 242.404 76.3613C243.664 71.1147 245.578 67.0634 248.148 64.2072C250.739 61.356 253.636 59.5067 256.841 58.6593C260.067 57.8168 263.254 57.7735 266.402 58.5293C268.764 59.0961 270.745 59.9708 272.345 61.1534C273.95 62.317 275.203 63.6658 276.106 65.1998C277.013 66.7149 277.6 68.2831 277.869 69.9043L278.241 69.9938L280.063 62.4071L297.214 66.5243L286.804 109.893C285.921 113.573 284.125 116.445 281.417 118.51C278.724 120.598 275.33 121.869 271.234 122.323C267.138 122.777 262.573 122.4 257.539 121.191ZM265.092 92.4657C266.666 92.8436 268.108 92.7705 269.416 92.2464C270.751 91.7084 271.897 90.766 272.855 89.4193C273.839 88.0587 274.585 86.3215 275.092 84.2078C275.609 82.0563 275.74 80.1417 275.485 78.4639C275.256 76.7721 274.669 75.3837 273.725 74.2987C272.805 73.1998 271.559 72.4614 269.984 72.0835C268.41 71.7056 266.964 71.7976 265.646 72.3595C264.353 72.9075 263.221 73.8831 262.249 75.2865C261.302 76.6759 260.57 78.4463 260.053 80.5978C259.537 82.7492 259.388 84.6495 259.605 86.2985C259.848 87.9336 260.423 89.2793 261.331 90.3354C262.264 91.3777 263.517 92.0878 265.092 92.4657Z" fill="white"/>
<path d="M321.289 121.683C316.55 123.009 312.316 123.53 308.585 123.244C304.881 122.972 301.794 122.022 299.326 120.395C296.883 118.782 295.161 116.623 294.161 113.92L310.531 109.337C310.952 110.206 311.569 110.83 312.383 111.207C313.196 111.584 314.15 111.75 315.243 111.706C316.363 111.674 317.569 111.478 318.861 111.116C321.056 110.501 322.736 109.507 323.899 108.133C325.084 106.753 325.32 104.793 324.608 102.251L322.568 94.9618L322.075 95.0997C321.868 96.7298 321.272 98.2369 320.288 99.621C319.299 100.986 317.988 102.19 316.355 103.232C314.717 104.255 312.831 105.065 310.697 105.662C307.333 106.604 304.036 106.761 300.808 106.134C297.6 105.5 294.712 103.88 292.146 101.273C289.601 98.6602 287.632 94.8681 286.24 89.8966C284.785 84.7009 284.484 80.2301 285.338 76.4841C286.212 72.7323 287.842 69.7061 290.229 67.4052C292.636 65.0987 295.399 63.5089 298.517 62.6358C300.856 61.9809 303.012 61.7803 304.985 62.0339C306.953 62.2688 308.705 62.8365 310.24 63.7368C311.77 64.6185 313.047 65.7021 314.071 66.9875L314.44 66.8841L312.336 59.3709L329.322 54.6148L341.348 97.5636C342.369 101.208 342.199 104.591 340.838 107.713C339.504 110.848 337.158 113.611 333.802 116.002C330.445 118.393 326.274 120.287 321.289 121.683ZM313.898 92.9151C315.457 92.4785 316.68 91.7127 317.568 90.6175C318.471 89.4979 319.014 88.1166 319.195 86.4736C319.392 84.8061 319.197 82.9257 318.611 80.8325C318.015 78.7018 317.197 76.9658 316.157 75.6242C315.133 74.2582 313.945 73.3314 312.591 72.8437C311.253 72.3315 309.805 72.2937 308.246 72.7302C306.687 73.1668 305.468 73.9513 304.591 75.0839C303.729 76.1919 303.215 77.5956 303.049 79.2947C302.898 80.9694 303.121 82.872 303.718 85.0027C304.314 87.1333 305.109 88.8658 306.102 90.2001C307.111 91.51 308.268 92.4052 309.575 92.8858C310.898 93.3419 312.338 93.3516 313.898 92.9151Z" fill="white"/>
<path fill-rule="evenodd" clip-rule="evenodd" d="M225.054 46.0541C239.413 46.0541 251.054 57.6947 251.054 72.0541C251.054 86.4135 239.413 98.0541 225.054 98.0541C210.695 98.0541 199.054 86.4135 199.054 72.0541C199.054 57.6947 210.695 46.0541 225.054 46.0541ZM225.054 58.0541C217.322 58.0541 211.054 64.3221 211.054 72.0541C211.054 79.7861 217.322 86.0541 225.054 86.0541C232.786 86.0541 239.054 79.7861 239.054 72.0541C239.054 64.3221 232.786 58.0541 225.054 58.0541Z" fill="white"/>
<path d="M65.3729 74.5844L67.3558 35.5438L84.9752 36.4387L82.9923 75.4793L65.3729 74.5844ZM76.4249 30.8842C74.0416 30.7632 72.0388 29.8721 70.4164 28.2109C68.794 26.5498 68.039 24.6127 68.1514 22.3996C68.2638 20.1866 69.2112 18.3359 70.9935 16.8477C72.7759 15.3595 74.8587 14.6759 77.242 14.797C79.6465 14.9191 81.6494 15.8102 83.2505 17.4703C84.8728 19.1314 85.6278 21.0685 85.5154 23.2816C85.403 25.4946 84.4556 27.3452 82.6733 28.8335C80.9123 30.3228 78.8295 31.0063 76.4249 30.8842Z" stroke="white" stroke-width="6" mask="url(#path-5-outside-2_3_32)"/>
<path d="M80.4862 74.9593L91.2669 27.0668L107.605 30.7446L105.556 39.8492L106.055 39.9615C107.726 37.1928 109.964 35.2068 112.768 34.0035C115.573 32.8002 118.638 32.5728 121.964 33.3215C125.331 34.0795 128.03 35.6261 130.059 37.9612C132.094 40.2755 133.03 42.9543 132.87 45.9975L133.368 46.1098C134.839 43.3614 137.093 41.4008 140.131 40.2282C143.173 39.0348 146.471 38.8382 150.026 39.6383C154.62 40.6724 158.008 42.9858 160.192 46.5786C162.396 50.176 162.946 54.4275 161.841 59.3332L154.57 91.6357L137.359 87.7614L143.647 59.8241C144.12 57.7246 143.96 55.9632 143.166 54.5397C142.377 53.0954 141.089 52.1721 139.302 51.7697C137.535 51.372 135.996 51.6589 134.685 52.6306C133.4 53.5862 132.521 55.1137 132.048 57.2131L125.76 85.1504L109.297 81.4446L115.585 53.5073C116.058 51.4078 115.898 49.6464 115.104 48.2229C114.315 46.7786 113.027 45.8553 111.24 45.4529C110.055 45.1862 108.975 45.2271 108.001 45.5757C107.027 45.9243 106.187 46.5541 105.479 47.465C104.798 48.3599 104.3 49.5036 103.986 50.8963L97.6976 78.8336L80.4862 74.9593Z" stroke="white" stroke-width="6" mask="url(#path-5-outside-2_3_32)"/>
<path d="M9.84391 32.1824L7.05408 18.1387L62.8529 7.05408L65.6428 21.0978L46.3326 24.9339L56.2963 75.0901L39.1178 78.5027L29.1541 28.3464L9.84391 32.1824Z" stroke="white" stroke-width="6" mask="url(#path-5-outside-2_3_32)"/>
<path d="M198.693 58.8418L196.185 71.8986L166.054 66.1108L168.562 53.0541L198.693 58.8418Z" stroke="white" stroke-width="6" mask="url(#path-5-outside-2_3_32)"/>
<path d="M378.903 98.5082C374.327 99.8893 370.115 100.19 366.266 99.4088C362.431 98.6035 359.114 96.7944 356.317 93.9815C353.532 91.144 351.431 87.3771 350.014 82.6806C348.654 78.1735 348.357 73.9651 349.126 70.0552C349.894 66.1454 351.623 62.7618 354.312 59.9045C357.002 57.0472 360.56 54.9504 364.987 53.6142C368.223 52.6373 371.307 52.2643 374.239 52.4953C377.17 52.7262 379.86 53.5363 382.309 54.9254C384.752 56.2955 386.894 58.2115 388.733 60.6731C390.571 63.1348 392.014 66.0984 393.06 69.5639L394.157 73.1999L355.876 84.7544L353.27 76.119L377.377 68.8427C376.981 67.5984 376.333 66.5955 375.434 65.8339C374.547 65.0478 373.512 64.544 372.329 64.3225C371.159 64.0765 369.932 64.1472 368.648 64.5346C367.402 64.9108 366.341 65.5307 365.465 66.3943C364.583 67.2389 363.969 68.2301 363.623 69.3679C363.295 70.5 363.303 71.7061 363.649 72.9861L366.461 82.3033C366.884 83.7047 367.55 84.8675 368.458 85.7918C369.366 86.7161 370.454 87.3279 371.722 87.6272C372.989 87.9265 374.385 87.846 375.911 87.3856C376.971 87.0656 377.893 86.6221 378.675 86.0553C379.477 85.4828 380.108 84.817 380.569 84.058C381.024 83.2801 381.278 82.439 381.33 81.5349L395.392 77.2904C395.823 80.4663 395.474 83.4439 394.344 86.2231C393.208 88.9834 391.338 91.4281 388.733 93.5573C386.142 95.662 382.865 97.3123 378.903 98.5082Z" stroke="white" stroke-width="6" mask="url(#path-5-outside-2_3_32)"/>
<path d="M349.97 27.8668L351.418 93.3054L333.781 93.6959L332.332 28.2574L349.97 27.8668Z" stroke="white" stroke-width="6" mask="url(#path-5-outside-2_3_32)"/>
<path d="M257.539 121.191C252.754 120.043 248.802 118.435 245.683 116.369C242.58 114.327 240.347 111.995 238.983 109.372C237.635 106.773 237.182 104.049 237.625 101.202L254.155 105.17C254.099 106.134 254.334 106.979 254.861 107.704C255.388 108.43 256.14 109.039 257.117 109.533C258.11 110.051 259.259 110.467 260.564 110.78C262.78 111.312 264.732 111.261 266.417 110.628C268.123 110 269.285 108.402 269.901 105.836L271.668 98.4753L271.17 98.356C270.196 99.6789 268.941 100.705 267.408 101.435C265.879 102.146 264.148 102.558 262.214 102.673C260.285 102.769 258.243 102.558 256.089 102.041C252.692 101.226 249.736 99.7577 247.222 97.6372C244.728 95.5216 242.995 92.7005 242.024 89.1739C241.072 85.6522 241.199 81.3813 242.404 76.3613C243.664 71.1147 245.578 67.0634 248.148 64.2072C250.739 61.356 253.636 59.5067 256.841 58.6593C260.067 57.8168 263.254 57.7735 266.402 58.5293C268.764 59.0961 270.745 59.9708 272.345 61.1534C273.95 62.317 275.203 63.6658 276.106 65.1998C277.013 66.7149 277.6 68.2831 277.869 69.9043L278.241 69.9938L280.063 62.4071L297.214 66.5243L286.804 109.893C285.921 113.573 284.125 116.445 281.417 118.51C278.724 120.598 275.33 121.869 271.234 122.323C267.138 122.777 262.573 122.4 257.539 121.191ZM265.092 92.4657C266.666 92.8436 268.108 92.7705 269.416 92.2464C270.751 91.7084 271.897 90.766 272.855 89.4193C273.839 88.0587 274.585 86.3215 275.092 84.2078C275.609 82.0563 275.74 80.1417 275.485 78.4639C275.256 76.7721 274.669 75.3837 273.725 74.2987C272.805 73.1998 271.559 72.4614 269.984 72.0835C268.41 71.7056 266.964 71.7976 265.646 72.3595C264.353 72.9075 263.221 73.8831 262.249 75.2865C261.302 76.6759 260.57 78.4463 260.053 80.5978C259.537 82.7492 259.388 84.6495 259.605 86.2985C259.848 87.9336 260.423 89.2793 261.331 90.3354C262.264 91.3777 263.517 92.0878 265.092 92.4657Z" stroke="white" stroke-width="6" mask="url(#path-5-outside-2_3_32)"/>
<path d="M321.289 121.683C316.55 123.009 312.316 123.53 308.585 123.244C304.881 122.972 301.794 122.022 299.326 120.395C296.883 118.782 295.161 116.623 294.161 113.92L310.531 109.337C310.952 110.206 311.569 110.83 312.383 111.207C313.196 111.584 314.15 111.75 315.243 111.706C316.363 111.674 317.569 111.478 318.861 111.116C321.056 110.501 322.736 109.507 323.899 108.133C325.084 106.753 325.32 104.793 324.608 102.251L322.568 94.9618L322.075 95.0997C321.868 96.7298 321.272 98.2369 320.288 99.621C319.299 100.986 317.988 102.19 316.355 103.232C314.717 104.255 312.831 105.065 310.697 105.662C307.333 106.604 304.036 106.761 300.808 106.134C297.6 105.5 294.712 103.88 292.146 101.273C289.601 98.6602 287.632 94.8681 286.24 89.8966C284.785 84.7009 284.484 80.2301 285.338 76.4841C286.212 72.7323 287.842 69.7061 290.229 67.4052C292.636 65.0987 295.399 63.5089 298.517 62.6358C300.856 61.9809 303.012 61.7803 304.985 62.0339C306.953 62.2688 308.705 62.8365 310.24 63.7368C311.77 64.6185 313.047 65.7021 314.071 66.9875L314.44 66.8841L312.336 59.3709L329.322 54.6148L341.348 97.5636C342.369 101.208 342.199 104.591 340.838 107.713C339.504 110.848 337.158 113.611 333.802 116.002C330.445 118.393 326.274 120.287 321.289 121.683ZM313.898 92.9151C315.457 92.4785 316.68 91.7127 317.568 90.6175C318.471 89.4979 319.014 88.1166 319.195 86.4736C319.392 84.8061 319.197 82.9257 318.611 80.8325C318.015 78.7018 317.197 76.9658 316.157 75.6242C315.133 74.2582 313.945 73.3314 312.591 72.8437C311.253 72.3315 309.805 72.2937 308.246 72.7302C306.687 73.1668 305.468 73.9513 304.591 75.0839C303.729 76.1919 303.215 77.5956 303.049 79.2947C302.898 80.9694 303.121 82.872 303.718 85.0027C304.314 87.1333 305.109 88.8658 306.102 90.2001C307.111 91.51 308.268 92.4052 309.575 92.8858C310.898 93.3419 312.338 93.3516 313.898 92.9151Z" stroke="white" stroke-width="6" mask="url(#path-5-outside-2_3_32)"/>
<path fill-rule="evenodd" clip-rule="evenodd" d="M225.054 46.0541C239.413 46.0541 251.054 57.6947 251.054 72.0541C251.054 86.4135 239.413 98.0541 225.054 98.0541C210.695 98.0541 199.054 86.4135 199.054 72.0541C199.054 57.6947 210.695 46.0541 225.054 46.0541ZM225.054 58.0541C217.322 58.0541 211.054 64.3221 211.054 72.0541C211.054 79.7861 217.322 86.0541 225.054 86.0541C232.786 86.0541 239.054 79.7861 239.054 72.0541C239.054 64.3221 232.786 58.0541 225.054 58.0541Z" stroke="white" stroke-width="6" mask="url(#path-5-outside-2_3_32)"/>
<path d="M65.3729 74.5844L67.3558 35.5438L84.9752 36.4387L82.9923 75.4793L65.3729 74.5844ZM76.4249 30.8842C74.0416 30.7632 72.0388 29.8721 70.4164 28.2109C68.794 26.5498 68.039 24.6127 68.1514 22.3996C68.2638 20.1866 69.2112 18.3359 70.9935 16.8477C72.7759 15.3595 74.8587 14.6759 77.242 14.797C79.6465 14.9191 81.6494 15.8102 83.2505 17.4703C84.8728 19.1314 85.6278 21.0685 85.5154 23.2816C85.403 25.4946 84.4556 27.3452 82.6733 28.8335C80.9123 30.3228 78.8295 31.0063 76.4249 30.8842Z" fill="#0C53CF"/>
<path d="M80.4862 74.9593L91.2669 27.0668L107.605 30.7446L105.556 39.8492L106.055 39.9615C107.726 37.1928 109.964 35.2068 112.768 34.0035C115.573 32.8002 118.638 32.5728 121.964 33.3215C125.331 34.0795 128.03 35.6261 130.059 37.9612C132.094 40.2755 133.03 42.9543 132.87 45.9975L133.368 46.1098C134.839 43.3614 137.093 41.4008 140.131 40.2282C143.173 39.0348 146.471 38.8382 150.026 39.6383C154.62 40.6724 158.008 42.9858 160.192 46.5786C162.396 50.176 162.946 54.4275 161.841 59.3332L154.57 91.6357L137.359 87.7614L143.647 59.8241C144.12 57.7246 143.96 55.9632 143.166 54.5397C142.377 53.0954 141.089 52.1721 139.302 51.7697C137.535 51.372 135.996 51.6589 134.685 52.6306C133.4 53.5862 132.521 55.1137 132.048 57.2131L125.76 85.1504L109.297 81.4446L115.585 53.5073C116.058 51.4078 115.898 49.6464 115.104 48.2229C114.315 46.7786 113.027 45.8553 111.24 45.4529C110.055 45.1862 108.975 45.2271 108.001 45.5757C107.027 45.9243 106.187 46.5541 105.479 47.465C104.798 48.3599 104.3 49.5036 103.986 50.8963L97.6976 78.8336L80.4862 74.9593Z" fill="#0C53CF"/>
<path d="M9.84391 32.1824L7.05408 18.1387L62.8529 7.05408L65.6428 21.0978L46.3326 24.9339L56.2963 75.0901L39.1178 78.5027L29.1541 28.3464L9.84391 32.1824Z" fill="#0C53CF"/>
<path d="M198.693 58.8418L196.185 71.8986L166.054 66.1108L168.562 53.0541L198.693 58.8418Z" fill="#0C53CF"/>
<path d="M378.903 98.5082C374.327 99.8893 370.115 100.19 366.266 99.4088C362.431 98.6035 359.114 96.7944 356.317 93.9815C353.532 91.144 351.431 87.3771 350.014 82.6806C348.654 78.1735 348.357 73.9651 349.126 70.0552C349.894 66.1454 351.623 62.7618 354.312 59.9045C357.002 57.0472 360.56 54.9504 364.987 53.6142C368.223 52.6373 371.307 52.2643 374.239 52.4953C377.17 52.7262 379.86 53.5363 382.309 54.9254C384.752 56.2955 386.894 58.2115 388.733 60.6731C390.571 63.1348 392.014 66.0984 393.06 69.5639L394.157 73.1999L355.876 84.7544L353.27 76.119L377.377 68.8427C376.981 67.5984 376.333 66.5955 375.434 65.8339C374.547 65.0478 373.512 64.544 372.329 64.3225C371.159 64.0765 369.932 64.1472 368.648 64.5346C367.402 64.9108 366.341 65.5307 365.465 66.3943C364.583 67.2389 363.969 68.2301 363.623 69.3679C363.295 70.5 363.303 71.7061 363.649 72.9861L366.461 82.3033C366.884 83.7047 367.55 84.8675 368.458 85.7918C369.366 86.7161 370.454 87.3279 371.722 87.6272C372.989 87.9265 374.385 87.846 375.911 87.3856C376.971 87.0656 377.893 86.6221 378.675 86.0553C379.477 85.4828 380.108 84.817 380.569 84.058C381.024 83.2801 381.278 82.439 381.33 81.5349L395.392 77.2904C395.823 80.4663 395.474 83.4439 394.344 86.2231C393.208 88.9834 391.338 91.4281 388.733 93.5573C386.142 95.662 382.865 97.3123 378.903 98.5082Z" fill="#0C53CF"/>
<path d="M349.97 27.8668L351.418 93.3054L333.781 93.6959L332.332 28.2574L349.97 27.8668Z" fill="#0C53CF"/>
<path d="M257.539 121.191C252.754 120.043 248.802 118.435 245.683 116.369C242.58 114.327 240.347 111.995 238.983 109.372C237.635 106.773 237.182 104.049 237.625 101.202L254.155 105.17C254.099 106.134 254.334 106.979 254.861 107.704C255.388 108.43 256.14 109.039 257.117 109.533C258.11 110.051 259.259 110.467 260.564 110.78C262.78 111.312 264.732 111.261 266.417 110.628C268.123 110 269.285 108.402 269.901 105.836L271.668 98.4753L271.17 98.356C270.196 99.6789 268.941 100.705 267.408 101.435C265.879 102.146 264.148 102.558 262.214 102.673C260.285 102.769 258.243 102.558 256.089 102.041C252.692 101.226 249.736 99.7577 247.222 97.6372C244.728 95.5216 242.995 92.7005 242.024 89.1739C241.072 85.6522 241.199 81.3813 242.404 76.3613C243.664 71.1147 245.578 67.0634 248.148 64.2072C250.739 61.356 253.636 59.5067 256.841 58.6593C260.067 57.8168 263.254 57.7735 266.402 58.5293C268.764 59.0961 270.745 59.9708 272.345 61.1534C273.95 62.317 275.203 63.6658 276.106 65.1998C277.013 66.7149 277.6 68.2831 277.869 69.9043L278.241 69.9938L280.063 62.4071L297.214 66.5243L286.804 109.893C285.921 113.573 284.125 116.445 281.417 118.51C278.724 120.598 275.33 121.869 271.234 122.323C267.138 122.777 262.573 122.4 257.539 121.191ZM265.092 92.4657C266.666 92.8436 268.108 92.7705 269.416 92.2464C270.751 91.7084 271.897 90.766 272.855 89.4193C273.839 88.0587 274.585 86.3215 275.092 84.2078C275.609 82.0563 275.74 80.1417 275.485 78.4639C275.256 76.7721 274.669 75.3837 273.725 74.2987C272.805 73.1998 271.559 72.4614 269.984 72.0835C268.41 71.7056 266.964 71.7976 265.646 72.3595C264.353 72.9075 263.221 73.8831 262.249 75.2865C261.302 76.6759 260.57 78.4463 260.053 80.5978C259.537 82.7492 259.388 84.6495 259.605 86.2985C259.848 87.9336 260.423 89.2793 261.331 90.3354C262.264 91.3777 263.517 92.0878 265.092 92.4657Z" fill="#0C53CF"/>
<path d="M321.289 121.683C316.55 123.009 312.316 123.53 308.585 123.244C304.881 122.972 301.794 122.022 299.326 120.395C296.883 118.782 295.161 116.623 294.161 113.92L310.531 109.337C310.952 110.206 311.569 110.83 312.383 111.207C313.196 111.584 314.15 111.75 315.243 111.706C316.363 111.674 317.569 111.478 318.861 111.116C321.056 110.501 322.736 109.507 323.899 108.133C325.084 106.753 325.32 104.793 324.608 102.251L322.568 94.9618L322.075 95.0997C321.868 96.7298 321.272 98.2369 320.288 99.621C319.299 100.986 317.988 102.19 316.355 103.232C314.717 104.255 312.831 105.065 310.697 105.662C307.333 106.604 304.036 106.761 300.808 106.134C297.6 105.5 294.712 103.88 292.146 101.273C289.601 98.6602 287.632 94.8681 286.24 89.8966C284.785 84.7009 284.484 80.2301 285.338 76.4841C286.212 72.7323 287.842 69.7061 290.229 67.4052C292.636 65.0987 295.399 63.5089 298.517 62.6358C300.856 61.9809 303.012 61.7803 304.985 62.0339C306.953 62.2688 308.705 62.8365 310.24 63.7368C311.77 64.6185 313.047 65.7021 314.071 66.9875L314.44 66.8841L312.336 59.3709L329.322 54.6148L341.348 97.5636C342.369 101.208 342.199 104.591 340.838 107.713C339.504 110.848 337.158 113.611 333.802 116.002C330.445 118.393 326.274 120.287 321.289 121.683ZM313.898 92.9151C315.457 92.4785 316.68 91.7127 317.568 90.6175C318.471 89.4979 319.014 88.1166 319.195 86.4736C319.392 84.8061 319.197 82.9257 318.611 80.8325C318.015 78.7018 317.197 76.9658 316.157 75.6242C315.133 74.2582 313.945 73.3314 312.591 72.8437C311.253 72.3315 309.805 72.2937 308.246 72.7302C306.687 73.1668 305.468 73.9513 304.591 75.0839C303.729 76.1919 303.215 77.5956 303.049 79.2947C302.898 80.9694 303.121 82.872 303.718 85.0027C304.314 87.1333 305.109 88.8658 306.102 90.2001C307.111 91.51 308.268 92.4052 309.575 92.8858C310.898 93.3419 312.338 93.3516 313.898 92.9151Z" fill="#0C53CF"/>
<path fill-rule="evenodd" clip-rule="evenodd" d="M225.054 46.0541C239.413 46.0541 251.054 57.6947 251.054 72.0541C251.054 86.4135 239.413 98.0541 225.054 98.0541C210.695 98.0541 199.054 86.4135 199.054 72.0541C199.054 57.6947 210.695 46.0541 225.054 46.0541ZM225.054 58.0541C217.322 58.0541 211.054 64.3221 211.054 72.0541C211.054 79.7861 217.322 86.0541 225.054 86.0541C232.786 86.0541 239.054 79.7861 239.054 72.0541C239.054 64.3221 232.786 58.0541 225.054 58.0541Z" fill="#0C53CF"/>
</svg>
